# xmcd
#
# Track frame offsets:
#	150
#	12972
#	31401
#	48599
#	60638
#	78726
#	95261
#	108448
#	125650
#	138703
#	153537
#	169356
#	187721
#	202350
#	218025
#	234763
#	253931
#	267834
#	285552
#
# Disc length: 3945 seconds
#
# Revision: 1
# Processed by: cddbd v1.5.2PL0 Copyright (c) Steve Scherf et al.
# Submitted via: audiograbber 1.83.01
#
DISCID=180f6713
DTITLE=Various Artist - Hott Country 174
DYEAR=2010
DGENRE=Country
TTITLE0=Toby Keith - Trailerhood
TTITLE1=Sugarland - Stuck Like Glue
TTITLE2=Jason Aldean - My Kinda Party ( Radio Edit )
TTITLE3=Gord Bamford - Put Some Alcohol On It
TTITLE4=Lady Antebellum - Stars Tonight
TTITLE5=Band Perry - If I Die Young
TTITLE6=Justin Moore - How I Got To Be This Way
TTITLE7=Taylor Swift - Mine
TTITLE8=Hey Romeo - That's What I Am
TTITLE9=Trace Adkins - This AIn't No Love Song
TTITLE10=John Rich - Country Done Come To Town
TTITLE11=Brad Paisley - Anything Like Me
TTITLE12=Brad Johner - The Trouble With Love
TTITLE13=High Valley - On The Combine
TTITLE14=Steel Magnolia - Just By Being You ( Halo And Wings )
TTITLE15=Sara Evans - A Little Bit Stronger
TTITLE16=Joe Nichols - The Shape I'm In
TTITLE17=Carrie Underwood - Mama's Song
TTITLE18=Statler Brothers - Flowers On The Wall ( 1965 )
EXTD=August 2010
EXTT0=
EXTT1=
EXTT2=
EXTT3=
EXTT4=
EXTT5=
EXTT6=
EXTT7=
EXTT8=
EXTT9=
EXTT10=
EXTT11=
EXTT12=
EXTT13=
EXTT14=
EXTT15=
EXTT16=
EXTT17=
EXTT18=
PLAYORDER=
